<svg width="120" height="122" viewBox="0 0 120 122" fill="none" xmlns="http://www.w3.org/2000/svg">
    <g class="filter_icon_svg">
        <g class="filter_bottom_part">
            <g>
                <rect x="36.5" y="61.5" width="47" height="32" rx="2" fill="#242424"/>
                <g class="lines">
                    <rect class="line" x="37" y="62" width="46" height="5.33333" fill="url(#green_filter_gradient)"/>
                    <rect class="line" x="37" y="67.2" width="46" height="5.33333" fill="url(#green_filter_gradient)"/>
                    <rect class="line" x="37" y="72.4" width="46" height="5.33333" fill="url(#green_filter_gradient)"/>
                    <rect class="line" x="37" y="77.6" width="46" height="5.33333" fill="url(#green_filter_gradient)"/>
                    <rect class="line" x="37" y="82.8" width="46" height="5.33333" fill="url(#green_filter_gradient)"/>
                    <rect class="line" x="37" y="88.0" width="46" height="5.33333" fill="url(#green_filter_gradient)"/>
                </g>
                <rect class="border_lines"  x="36.5" y="61.5" width="47" height="32" rx="2" stroke="#87E2AE"/>
            </g>
        </g>
    <g class="top_part">
        <g class="filter_icon_img">
            <path class="filter_sym" d="M55.63 35V34.35L59.127 25.679H60.18L63.664 34.35V35H55.63ZM56.969 33.947H62.312L60.141 28.279C60.115 28.2097 60.0673 28.084 59.998 27.902C59.9287 27.72 59.8593 27.5337 59.79 27.343C59.7293 27.1437 59.6817 26.992 59.647 26.888C59.6037 27.0613 59.5517 27.239 59.491 27.421C59.439 27.5943 59.3827 27.7547 59.322 27.902C59.27 28.0493 59.2267 28.175 59.192 28.279L56.969 33.947Z" fill="#87E2AE"/>
            <rect x="48" y="20.5" width="24" height="20" stroke="#87E2AE"/>
        </g>
        <g class="filter_icon_border">
            <g class="Group 100">
                <path class="filter_point" d="M3.5 71L7 74.5L3.5 78L0 74.5L3.5 71Z" fill="#87E2AE"/>
                <circle class="Ellipse 50" cx="3.5" cy="74.5" r="1.5" fill="#101011"/>
            </g>
            <g calss="Group 101">
                <path class="filter_point" d="M116.5 71L120 74.5L116.5 78L113 74.5L116.5 71Z" fill="#87E2AE"/>
                <circle class="Ellipse 50_2" cx="116.5" cy="74.5" r="1.5" fill="#101011"/>
            </g>
            <rect class="filter_border_top" x="3" y="30" width="1" height="42" fill="#87E2AE"/>
            <rect class="filter_border_top" x="72.5" y="30" width="43.5" height="1" fill="#87E2AE"/>
            <rect class="filter_border_top" x="4" y="30" width="43.5" height="1" fill="#87E2AE"/>
            <rect class="filter_border_top" x="116" y="30" width="1" height="42" fill="#87E2AE"/>
        </g>
    </g>

</g>
    <defs>
        <linearGradient id="green_filter_gradient" gradientTransform="rotate(90)">
            <stop stop-color="#87E2AE"/>
            <stop offset= "48%" stop-color="#87E2AE" stop-opacity="0"/>
            <stop offset="100%" stop-color="#87E2AE"/>
        </linearGradient>

        <linearGradient id="red_filter_gradient" gradientTransform="rotate(90)">
            <stop stop-color="#F14D4D"/>
            <stop offset= "48%" stop-color="#F14D4D" stop-opacity="0"/>
            <stop offset="100%" stop-color="#F14D4D"/>
        </linearGradient>
    </defs>
</svg>
