<svg width="38" height="38" viewBox="0 0 38 38" fill="none" xmlns="http://www.w3.org/2000/svg">
    <g class = 'vip-fan_icon'>
        <path class="fan_img" fill-rule="evenodd" clip-rule="evenodd" d="M12.1711 13.732C12.1545 13.6839 12.1384 13.6356 12.1226 13.5872C11.392 11.3402 11.5816 8.87887 12.786 6.79281C13.9904 4.70674 16.0272 3.31182 18.3384 2.82109C20.0551 2.4566 21.8279 2.60679 23.4452 3.18416C26.4783 4.26699 26.9007 7.61351 25.7374 9.62848L24.2689 12.172C24.317 12.1555 24.3653 12.1393 24.4137 12.1236C26.6607 11.3929 29.122 11.5826 31.2081 12.787C33.2942 13.9914 34.6891 16.0281 35.1798 18.3394C35.5443 20.056 35.3941 21.8288 34.8168 23.4461C33.7339 26.4793 30.3874 26.9017 28.3724 25.7384L25.8289 24.2698C25.8454 24.3179 25.8616 24.3662 25.8773 24.4147C26.608 26.6617 26.4183 29.123 25.2139 31.2091C24.0095 33.2951 21.9728 34.69 19.6615 35.1808C17.9449 35.5453 16.1721 35.3951 14.5548 34.8177C11.5216 33.7349 11.0992 30.3884 12.2626 28.3734L13.7311 25.8298C13.683 25.8464 13.6347 25.8625 13.5862 25.8783C11.3392 26.6089 8.87791 26.4193 6.79185 25.2149C4.70578 24.0105 3.31086 21.9738 2.82013 19.6625C2.45564 17.9458 2.60583 16.173 3.18321 14.5557C4.26603 11.5226 7.61255 11.1002 9.62752 12.2635L12.1711 13.732ZM30.0953 22.7543C30.6446 23.0715 31.3584 22.8851 31.5717 22.2877C31.9468 21.237 32.0339 20.1126 31.8093 19.055C31.5084 17.6377 30.6724 16.4564 29.4853 15.771C28.2982 15.0856 26.8572 14.9523 25.4792 15.4003C25.2319 15.4808 24.9903 15.5787 24.7559 15.693C23.6841 16.2152 22.7627 17.0779 22.1379 18.1601L30.0953 22.7543ZM15.8621 19.8417C15.2372 20.924 14.3159 21.7866 13.2441 22.3089C13.0096 22.4232 12.768 22.5211 12.5207 22.6015C11.1428 23.0496 9.70179 22.9162 8.51467 22.2309C7.32755 21.5455 6.49158 20.3642 6.19064 18.9469C5.96609 17.8893 6.05318 16.7649 6.42827 15.7142C6.64154 15.1168 7.35535 14.9304 7.90469 15.2475L15.8621 19.8417ZM19.8408 22.1388C20.9231 22.7637 21.7857 23.6851 22.308 24.7568C22.4222 24.9913 22.5202 25.2329 22.6006 25.4802C23.0486 26.8581 22.9153 28.2991 22.2299 29.4862C21.5445 30.6734 20.3632 31.5093 18.9459 31.8103C17.8883 32.0348 16.7639 31.9477 15.7133 31.5726C15.1159 31.3594 14.9294 30.6456 15.2466 30.0962L19.8408 22.1388ZM22.7534 7.90565C23.0705 7.35631 22.8841 6.6425 22.2867 6.42923C21.236 6.05414 20.1117 5.96705 19.054 6.1916C17.6367 6.49254 16.4554 7.32851 15.7701 8.51563C15.0847 9.70275 14.9513 11.1438 15.3994 12.5217C15.4798 12.769 15.5778 13.0106 15.692 13.245C16.2143 14.3168 17.0769 15.2382 18.1592 15.863L22.7534 7.90565Z" fill="#767676"/>
        <g class="fan_grid">
            <circle class ="fan_grid_border" cx="19" cy="19" r="18.5" transform="rotate(90 19 19)" stroke="#323232"/>
            <g class ="fan_grid_elements">
                    <path  fill-rule="evenodd" clip-rule="evenodd" d="M20 0H18V3.03074C9.95999 3.52654 3.52655 9.95998 3.03074 18H0V20H3.03074C3.52654 28.04 9.95999 34.4735 18 34.9693V38H20V34.9693C28.04 34.4735 34.4735 28.04 34.9693 20H38V18H34.9693C34.4735 9.95999 28.04 3.52654 20 3.03074V0ZM33.9672 18C33.4744 10.5125 27.4875 4.52564 20 4.0328V7.04107C25.8298 7.52202 30.478 12.1702 30.9589 18H33.9672ZM29.9552 18C29.4796 12.7229 25.2771 8.52039 20 8.04484V11.0619C23.6187 11.5131 26.4869 14.3813 26.9381 18H29.9552ZM26.9381 20H29.9552C29.4796 25.2771 25.2771 29.4796 20 29.9552V26.9381C23.6187 26.4869 26.4869 23.6187 26.9381 20ZM25.9291 18C25.4906 14.9343 23.0657 12.5094 20 12.0709V16.1108C20.9654 16.3734 21.7473 17.0812 22.1117 18H25.9291ZM22.2228 20H25.9291C25.4906 23.0657 23.0657 25.4906 20 25.9291V22.2227C21.0792 21.9292 21.9293 21.0792 22.2228 20ZM16.2221 18C16.5435 17.1896 17.1897 16.5434 18 16.2221V12.0709C14.9343 12.5094 12.5094 14.9343 12.0709 18H16.2221ZM12.0709 20H16.111C16.3736 20.9653 17.0813 21.7472 18 22.1115V25.9291C14.9343 25.4906 12.5094 23.0657 12.0709 20ZM11.0619 18C11.5131 14.3813 14.3813 11.5131 18 11.0619V8.04484C12.7229 8.52039 8.52039 12.7229 8.04484 18H11.0619ZM8.04484 20H11.0619C11.5131 23.6187 14.3813 26.4869 18 26.9381V29.9552C12.7229 29.4796 8.52039 25.2771 8.04484 20ZM7.04107 18C7.52202 12.1702 12.1702 7.52202 18 7.04107V4.0328C10.5125 4.52564 4.52564 10.5125 4.0328 18H7.04107ZM4.0328 20H7.04107C7.52202 25.8298 12.1702 30.478 18 30.9589V33.9672C10.5125 33.4744 4.52564 27.4875 4.0328 20ZM30.9589 20H33.9672C33.4744 27.4875 27.4875 33.4744 20 33.9672V30.9589C25.8298 30.478 30.478 25.8298 30.9589 20Z" fill="#323232"/>
                </g>
        </g>
    </g>
    <defs>
        <linearGradient id="vip-fan-gradient" x1="19" y1="3" x2="19" y2="35" gradientUnits="userSpaceOnUse">
            <stop stop-color="#E5F280"/>
            <stop offset="1" stop-color="#87E2AE"/>
        </linearGradient>
    </defs>
</svg>