<svg width="46" height="46" viewBox="0 0 46 46" fill="none" xmlns="http://www.w3.org/2000/svg">
    <g class="vip-fan_icon">
        <path class="fan_img" fill-rule="evenodd" clip-rule="evenodd" d="M26.97 32.6569C26.9582 32.7173 26.9459 32.7778 26.9331 32.8381C26.3391 35.6359 24.6505 38.1015 22.1252 39.5594C19.6 41.0174 16.6205 41.2469 13.9005 40.3625C11.8802 39.7056 10.1126 38.4751 8.76657 36.8909C6.2422 33.9199 7.82486 30.1559 10.264 28.7477L13.3431 26.97C13.2826 26.9582 13.2222 26.9459 13.1619 26.9331C10.364 26.339 7.89852 24.6505 6.44057 22.1252C4.98263 19.6 4.75303 16.6205 5.63749 13.9005C6.29441 11.8802 7.52488 10.1126 9.10906 8.76655C12.0801 6.24218 15.8441 7.82484 17.2523 10.264L19.03 13.3431C19.0418 13.2826 19.0541 13.2222 19.0669 13.1619C19.6609 10.364 21.3495 7.8985 23.8748 6.44055C26.4 4.98261 29.3795 4.75301 32.0995 5.63747C34.1198 6.2944 35.8874 7.52486 37.2334 9.10904C39.7578 12.0801 38.1751 15.844 35.736 17.2523L32.6569 19.03C32.7174 19.0418 32.7778 19.0541 32.8381 19.0669C35.636 19.6609 38.1015 21.3495 39.5594 23.8747C41.0174 26.4 41.247 29.3795 40.3625 32.0995C39.7056 34.1198 38.4751 35.8874 36.8909 37.2334C33.9199 39.7578 30.1559 38.1751 28.7477 35.7359L26.97 32.6569ZM13.6401 12.3495C13.2562 11.6845 12.395 11.448 11.8098 11.9452C10.7807 12.8196 10.0088 13.9456 9.60411 15.1903C9.06173 16.8583 9.22313 18.6027 10.0528 20.0397C10.8825 21.4767 12.3125 22.4887 14.0282 22.853C14.3361 22.9184 14.6487 22.9619 14.9636 22.9841C16.4033 23.0852 17.8913 22.7386 19.2015 21.9822L13.6401 12.3495ZM26.7985 24.0178C28.1086 23.2614 29.5967 22.9147 31.0364 23.0159C31.3513 23.038 31.6639 23.0816 31.9718 23.147C33.6875 23.5113 35.1175 24.5232 35.9472 25.9603C36.7769 27.3973 36.9383 29.1417 36.3959 30.8097C35.9912 32.0543 35.2193 33.1804 34.1902 34.0548C33.605 34.552 32.7438 34.3154 32.3599 33.6504L26.7985 24.0178ZM24.0178 19.2015C23.2614 17.8913 22.9147 16.4033 23.0159 14.9636C23.0381 14.6487 23.0816 14.3361 23.147 14.0282C23.5113 12.3124 24.5232 10.8825 25.9603 10.0528C27.3973 9.22312 29.1417 9.06171 30.8097 9.60409C32.0543 10.0088 33.1804 10.7807 34.0548 11.8098C34.552 12.395 34.3154 13.2561 33.6504 13.6401L24.0178 19.2015ZM12.3496 32.3599C11.6846 32.7438 11.448 33.605 11.9452 34.1902C12.8196 35.2193 13.9456 35.9912 15.1903 36.3959C16.8583 36.9382 18.6027 36.7768 20.0397 35.9472C21.4767 35.1175 22.4887 33.6875 22.853 31.9718C22.9184 31.6639 22.9619 31.3513 22.9841 31.0364C23.0852 29.5966 22.7386 28.1086 21.9822 26.7985L12.3496 32.3599Z" fill="#767676"/>
        <g class="fan_grid">
            <path class="fan_grid_elements" fill-rule="evenodd" clip-rule="evenodd" d="M46 24.2105L46 21.7895L42.3312 21.7895C41.731 12.0568 33.9432 4.26898 24.2105 3.66879L24.2105 -9.52448e-07L21.7895 -1.05828e-06L21.7895 3.66879C12.0568 4.26897 4.26898 12.0568 3.66879 21.7895L-2.14454e-06 21.7895L-2.25037e-06 24.2105L3.66879 24.2105C4.26897 33.9432 12.0568 41.731 21.7895 42.3312L21.7895 46L24.2105 46L24.2105 42.3312C33.9432 41.731 41.731 33.9432 42.3312 24.2105L46 24.2105ZM24.2105 41.1182C33.2744 40.5216 40.5216 33.2744 41.1182 24.2105L37.4766 24.2105C36.8944 31.2677 31.2676 36.8944 24.2105 37.4766L24.2105 41.1182ZM24.2105 36.2615C30.5986 35.6858 35.6858 30.5986 36.2615 24.2105L32.6093 24.2105C32.063 28.5911 28.5911 32.063 24.2105 32.6093L24.2105 36.2615ZM21.7895 32.6093L21.7895 36.2615C15.4014 35.6858 10.3142 30.5986 9.73849 24.2105L13.3907 24.2105C13.937 28.5911 17.4089 32.063 21.7895 32.6093ZM24.2105 31.3879C27.9216 30.857 30.857 27.9216 31.3879 24.2105L26.4974 24.2105C26.1796 25.3791 25.3228 26.3257 24.2105 26.7668L24.2105 31.3879ZM21.7895 26.9013L21.7895 31.3879C18.0784 30.857 15.143 27.9216 14.6121 24.2105L19.0988 24.2105C19.4541 25.517 20.483 26.5459 21.7895 26.9013ZM24.2105 19.6373C25.1915 20.0263 25.9737 20.8085 26.3628 21.7895L31.3879 21.7895C30.857 18.0784 27.9216 15.143 24.2105 14.6121L24.2105 19.6373ZM21.7895 14.6121L21.7895 19.5028C20.621 19.8206 19.6745 20.6773 19.2334 21.7895L14.6121 21.7895C15.143 18.0784 18.0784 15.143 21.7895 14.6121ZM24.2105 13.3907C28.5911 13.937 32.063 17.4089 32.6093 21.7895L36.2615 21.7895C35.6858 15.4014 30.5986 10.3142 24.2105 9.73849L24.2105 13.3907ZM21.7895 9.73849L21.7895 13.3907C17.4089 13.937 13.937 17.4089 13.3907 21.7895L9.73849 21.7895C10.3142 15.4014 15.4014 10.3142 21.7895 9.73849ZM24.2105 8.5234C31.2677 9.10561 36.8944 14.7324 37.4766 21.7895L41.1182 21.7895C40.5216 12.7256 33.2744 5.4784 24.2105 4.88182L24.2105 8.5234ZM21.7895 4.88182L21.7895 8.5234C14.7324 9.1056 9.1056 14.7324 8.5234 21.7895L4.88182 21.7895C5.4784 12.7256 12.7256 5.4784 21.7895 4.88182ZM21.7895 37.4766L21.7895 41.1182C12.7256 40.5216 5.4784 33.2743 4.88182 24.2105L8.5234 24.2105C9.1056 31.2676 14.7323 36.8944 21.7895 37.4766Z" fill="#323232"/>
            <circle class="fan_grid_border" cx="23" cy="23" r="22.5" transform="rotate(-180 23 23)" stroke="#323232"/>
        </g>
    </g>
    <defs>
        <linearGradient id="vip-fan-gradient" x1="13.3158" y1="6.22643" x2="32.6842" y2="39.7735" gradientUnits="userSpaceOnUse">
            <stop stop-color="#E5F280"/>
            <stop offset="1" stop-color="#87E2AE"/>
        </linearGradient>
    </defs>
</svg>
