<svg width="34" height="34" viewBox="0 0 34 34" fill="none" xmlns="http://www.w3.org/2000/svg">
    <g class="vip-humidity_icon">
        <rect class="humidity_icon_border" x="0.5" y="0.5" width="33" height="33" stroke="#87E2AE"/>
        <g class="humidity_icon_img">
            <path d="M17.2405 13.8491C16.5923 12.9416 15.1713 14.1838 14.5561 15.2025C13.9409 16.2211 13.5125 17.8079 14.4694 17.9494C15.0437 18.0344 15.2549 17.5387 15.5041 16.954C15.622 16.6776 15.7483 16.3812 15.9255 16.117C16.0993 15.8577 16.3818 15.6435 16.6571 15.4347C17.2291 15.0008 17.77 14.5905 17.2405 13.8491Z" fill="url(#humidity-gradient)"/>
            <path fill-rule="evenodd" clip-rule="evenodd" d="M24.2188 18.7875C24.2188 22.7363 20.9868 25.9375 17 25.9375C13.0132 25.9375 9.78125 22.7363 9.78125 18.7875C9.78125 13.1696 17 8.0625 17 8.0625C17 8.0625 24.2188 13.1696 24.2188 18.7875ZM22.1562 18.7875C22.1562 21.5787 19.8664 23.875 17 23.875C14.1336 23.875 11.8438 21.5787 11.8438 18.7875C11.8438 16.7917 13.1808 14.6094 14.9146 12.708C15.6554 11.8957 16.4015 11.2076 17 10.6956C17.5985 11.2076 18.3446 11.8957 19.0854 12.708C20.8192 14.6094 22.1562 16.7917 22.1562 18.7875Z" fill="url(#humidity-gradient)"/>
        </g>
    </g>
    <defs>
        <linearGradient id="humidity-gradient" x1="17" y1="8.0625" x2="17" y2="25.9375" gradientUnits="userSpaceOnUse">
            <stop stop-color="#E5F280"/>
            <stop offset="1" stop-color="#87E2AE"/>
        </linearGradient>
    </defs>
</svg>
