<svg width="68" height="78" viewBox="0 0 68 78" fill="none" xmlns="http://www.w3.org/2000/svg">

    <g class="vip-ls_icon">
        <g class="vip-ls_img">
            <g class="vip-ls_img_in">
                <g id="Union">
                    <path d="M32.5612 32.188C32.9556 31.5349 33.8045 30.7006 34.1094 31.2149C34.3584 31.6351 34.0387 31.9147 33.7007 32.2103C33.538 32.3526 33.3711 32.4986 33.2612 32.6658C33.1493 32.8362 33.0634 33.0232 32.9833 33.1977C32.8139 33.5666 32.6703 33.8794 32.3601 33.8603C31.8431 33.8284 32.1667 32.841 32.5612 32.188Z" fill="url(#paint0_linear_2536_104635)"/>
                    <path fill-rule="evenodd" clip-rule="evenodd" d="M34 39.25C36.8995 39.25 39.25 36.9219 39.25 34.05C39.25 29.9643 34 26.25 34 26.25C34 26.25 28.75 29.9643 28.75 34.05C28.75 36.9219 31.1005 39.25 34 39.25ZM34 37C35.6772 37 37 35.659 37 34.05C37 32.8942 36.1977 31.4884 34.9625 30.1339C34.6347 29.7745 34.3046 29.4493 34 29.1682C33.6954 29.4493 33.3653 29.7745 33.0375 30.1339C31.8023 31.4884 31 32.8942 31 34.05C31 35.659 32.3228 37 34 37Z" fill="url(#paint1_linear_2536_104635)"/>
                    <path d="M24.3771 37.1244C24.9234 36.454 25.7046 35.8518 26.6694 35.3478C26.8523 36.1885 27.1778 36.9752 27.6191 37.6825C27.5685 37.7372 27.5203 37.7927 27.4745 37.8489C26.841 38.6262 26.7092 39.4945 27.1 40.3164C27.346 40.8339 27.7903 41.3145 28.3978 41.7293L28.4212 41.7452C28.7732 41.983 29.1791 42.1989 29.6322 42.3874C30.8826 42.9077 32.421 43.1899 34.0043 43.1894L34.0057 43.1894C35.5885 43.1888 37.1258 42.9056 38.3746 42.3846C38.8282 42.1954 39.2344 41.9787 39.5863 41.7401L39.6022 41.7293C40.2115 41.3133 40.6566 40.8311 40.9021 40.312C41.291 39.4898 41.1573 38.6216 40.5221 37.8446C40.4773 37.7899 40.4303 37.7358 40.381 37.6825C40.8222 36.9752 41.1477 36.1885 41.3306 35.3478C42.2924 35.8502 43.0717 36.4502 43.6179 37.1182C44.5546 38.2639 44.7518 39.5442 44.1783 40.7567C43.628 41.9201 42.3984 42.9573 40.6724 43.7182C40.5995 43.7504 40.5257 43.782 40.4511 43.8132C40.0413 43.9841 39.6104 44.1377 39.1625 44.2732C37.5966 44.7468 35.8218 44.9994 34.0063 45L34.0049 45C32.1891 45.0005 30.4134 44.7488 28.8464 44.2758C28.3989 44.1408 27.9684 43.9877 27.5589 43.8173C27.4808 43.7848 27.4037 43.7518 27.3276 43.7182C25.6051 42.9588 24.3767 41.9241 23.8248 40.7633C23.2486 39.5512 23.4429 38.2708 24.3771 37.1244Z" fill="url(#paint2_linear_2536_104635)"/>
                </g>
            </g>
            <rect class="vip-ls_border" x="19" y="21" width="30" height="30" rx="11" stroke="url(#paint3_linear_2536_104635)" stroke-width="2"/>
        </g>
    </g>

    <defs>
        <linearGradient id="paint0_linear_2536_104635" x1="34" y1="26.25" x2="34" y2="45" gradientUnits="userSpaceOnUse">
            <stop stop-color="#E5F280"/>
            <stop offset="1" stop-color="#87E2AE"/>
        </linearGradient>
        <linearGradient id="paint1_linear_2536_104635" x1="34" y1="26.25" x2="34" y2="45" gradientUnits="userSpaceOnUse">
            <stop stop-color="#E5F280"/>
            <stop offset="1" stop-color="#87E2AE"/>
        </linearGradient>
        <linearGradient id="paint2_linear_2536_104635" x1="34" y1="26.25" x2="34" y2="45" gradientUnits="userSpaceOnUse">
            <stop stop-color="#E5F280"/>
            <stop offset="1" stop-color="#87E2AE"/>
        </linearGradient>
        <linearGradient id="paint3_linear_2536_104635" x1="34" y1="20" x2="34" y2="52" gradientUnits="userSpaceOnUse">
            <stop stop-color="#E5F280"/>
            <stop offset="1" stop-color="#87E2AE"/>
        </linearGradient>
    </defs>
</svg>
