<svg width="32" height="32" viewBox="0 0 32 32" fill="none" xmlns="http://www.w3.org/2000/svg">
    <path d="M14.5612 12.188C14.9556 11.5349 15.8045 10.7006 16.1094 11.2149C16.3584 11.6351 16.0387 11.9147 15.7007 12.2103C15.538 12.3526 15.3711 12.4986 15.2612 12.6658C15.1493 12.8362 15.0634 13.0232 14.9833 13.1977C14.8139 13.5666 14.6703 13.8794 14.3601 13.8603C13.8431 13.8284 14.1667 12.841 14.5612 12.188Z" fill="url(#paint0_linear_2897_61950)"/>
    <path fill-rule="evenodd" clip-rule="evenodd" d="M16 19.25C18.8995 19.25 21.25 16.9219 21.25 14.05C21.25 9.96429 16 6.25 16 6.25C16 6.25 10.75 9.96429 10.75 14.05C10.75 16.9219 13.1005 19.25 16 19.25ZM16 17C17.6772 17 19 15.659 19 14.05C19 12.8942 18.1977 11.4884 16.9625 10.1339C16.6347 9.7745 16.3046 9.4493 16 9.16817C15.6954 9.4493 15.3653 9.7745 15.0375 10.1339C13.8023 11.4884 13 12.8942 13 14.05C13 15.659 14.3228 17 16 17Z" fill="url(#paint1_linear_2897_61950)"/>
    <path d="M6.37705 17.1244C6.92341 16.454 7.7046 15.8518 8.66938 15.3478C8.85227 16.1885 9.17779 16.9752 9.61906 17.6825C9.56848 17.7372 9.52026 17.7927 9.47448 17.8489C8.841 18.6262 8.70923 19.4945 9.1 20.3164C9.34602 20.8339 9.79033 21.3145 10.3978 21.7293L10.4212 21.7452C10.7732 21.983 11.1791 22.1989 11.6322 22.3874C12.8826 22.9077 14.421 23.1899 16.0043 23.1894L16.0057 23.1894C17.5885 23.1888 19.1258 22.9056 20.3746 22.3846C20.8282 22.1954 21.2344 21.9787 21.5863 21.7401L21.6022 21.7293C22.2115 21.3133 22.6566 20.8311 22.9021 20.312C23.291 19.4898 23.1573 18.6216 22.5221 17.8446C22.4773 17.7899 22.4303 17.7358 22.381 17.6825C22.8222 16.9752 23.1477 16.1885 23.3306 15.3478C24.2924 15.8502 25.0717 16.4502 25.6179 17.1182C26.5546 18.2639 26.7518 19.5442 26.1783 20.7567C25.628 21.9201 24.3984 22.9573 22.6724 23.7182C22.5995 23.7504 22.5257 23.782 22.4511 23.8132C22.0413 23.9841 21.6104 24.1377 21.1625 24.2732C19.5966 24.7468 17.8218 24.9994 16.0063 25L16.0049 25C14.1891 25.0005 12.4134 24.7488 10.8464 24.2758C10.3989 24.1408 9.96842 23.9877 9.55892 23.8173C9.48084 23.7848 9.40372 23.7518 9.32757 23.7182C7.60506 22.9588 6.37667 21.9241 5.82482 20.7633C5.24858 19.5512 5.44289 18.2708 6.37705 17.1244Z" fill="url(#paint2_linear_2897_61950)"/>
    <rect class="vip-ls_border" x="1" y="1" width="30" height="30" rx="11" stroke="url(#paint3_linear_2897_61950)" stroke-width="2"/>
    <defs>
        <linearGradient id="paint0_linear_2897_61950" x1="16" y1="6.25" x2="16" y2="25" gradientUnits="userSpaceOnUse">
        <stop stop-color="#E5F280"/>
        <stop offset="1" stop-color="#87E2AE"/>
        </linearGradient>
        <linearGradient id="paint1_linear_2897_61950" x1="16" y1="6.25" x2="16" y2="25" gradientUnits="userSpaceOnUse">
        <stop stop-color="#E5F280"/>
        <stop offset="1" stop-color="#87E2AE"/>
        </linearGradient>
        <linearGradient id="paint2_linear_2897_61950" x1="16" y1="6.25" x2="16" y2="25" gradientUnits="userSpaceOnUse">
        <stop stop-color="#E5F280"/>
        <stop offset="1" stop-color="#87E2AE"/>
        </linearGradient>
        <linearGradient id="paint3_linear_2897_61950" x1="16" y1="0" x2="16" y2="32" gradientUnits="userSpaceOnUse">
        <stop stop-color="#E5F280"/>
        <stop offset="1" stop-color="#87E2AE"/>
        </linearGradient>
    </defs>
</svg>
