<svg width="167" height="157" viewBox="0 0 167 157" fill="none" xmlns="http://www.w3.org/2000/svg">

    <g class = 'pds_img'>
        <path d="M79.13 15V14.35L82.627 5.679H83.68L87.164 14.35V15H79.13ZM80.469 13.947H85.812L83.641 8.279C83.615 8.20967 83.5673 8.084 83.498 7.902C83.4287 7.72 83.3593 7.53367 83.29 7.343C83.2293 7.14367 83.1817 6.992 83.147 6.888C83.1037 7.06133 83.0517 7.239 82.991 7.421C82.939 7.59433 82.8827 7.75467 82.822 7.902C82.77 8.04933 82.7267 8.175 82.692 8.279L80.469 13.947Z" fill="#87E2AE"/>
        <rect x="71.5" y="0.5" width="24" height="20" stroke="#87E2AE"/>
    </g>

    <g class = 'pds_border'>
        <rect x="4" y="10" width="67" height="1" fill="#87E2AE"/>
        <rect x="96" y="10" width="67" height="1" fill="#87E2AE"/>
        <rect x="163" y="10" width="1" height="141" fill="#87E2AE"/>

        <rect x="3" y="10" width="1" height="141" fill="#87E2AE"/>

        <path d="M3.5 150L7 153.5L3.5 157L0 153.5L3.5 150Z" fill="#87E2AE"/>
        <path d="M163.5 150L167 153.5L163.5 157L160 153.5L163.5 150Z" fill="#87E2AE"/>
        <circle cx="163.5" cy="153.5" r="1.5" fill="#101011"/>
        <circle cx="3.5" cy="153.5" r="1.5" fill="#101011"/>
    </g>
</svg>
