<svg width="100" height="23" viewBox="0 0 100 23" fill="none" xmlns="http://www.w3.org/2000/svg">
    <g class="vip-reg_tempY-icon">
        <g class="reg_tempY_img">
            <path d="M47.3397 6.63312C47.1371 6.4455 46.8207 6.45767 46.6331 6.66029L44.8913 8.54148C44.0038 9.49994 44.0038 10.9801 44.8913 11.9385L45.0416 12.1009C45.5741 12.676 45.5741 13.564 45.0416 14.1391L43.6331 15.6603C43.4455 15.8629 43.4577 16.1793 43.6603 16.3669C43.8629 16.5545 44.1793 16.5423 44.3669 16.3397L45.7754 14.8185C46.6628 13.8601 46.6628 12.3799 45.7754 11.4215L45.625 11.2591C45.0926 10.684 45.0926 9.79596 45.625 9.22088L47.3669 7.3397C47.5545 7.13708 47.5423 6.82073 47.3397 6.63312Z" fill="#87E2AE"/>
            <path fill-rule="evenodd" clip-rule="evenodd" d="M38.0002 11C38.0021 8.99869 38.0283 7.93722 38.3806 7.08658C38.8881 5.86144 39.8614 4.88807 41.0866 4.3806C42.0054 4 43.1703 4 45.5 4C47.8297 4 48.9946 4 49.9134 4.3806C51.1386 4.88807 52.1119 5.86144 52.6194 7.08658C53 8.00544 53 9.17029 53 11.5C53 13.8297 53 14.9946 52.6194 15.9134C52.1119 17.1386 51.1386 18.1119 49.9134 18.6194C48.9946 19 47.8297 19 45.5 19C43.1703 19 42.0054 19 41.0866 18.6194C39.8614 18.1119 38.8881 17.1386 38.3806 15.9134C38.0283 15.0628 38.0021 14.0013 38.0002 12L33 12V11L38.0002 11ZM39.0453 14.1677C39.0005 13.5124 39 12.6785 39 11.5C39 10.3215 39.0005 9.48764 39.0453 8.83229C39.0894 8.18592 39.1731 7.78654 39.3045 7.46927C39.7105 6.48915 40.4892 5.71046 41.4693 5.30448C41.7865 5.17306 42.1859 5.08936 42.8323 5.04526C43.4876 5.00054 44.3215 5 45.5 5C46.6785 5 47.5124 5.00054 48.1677 5.04526C48.8141 5.08936 49.2135 5.17306 49.5307 5.30448C50.5108 5.71046 51.2895 6.48915 51.6955 7.46927C51.8269 7.78654 51.9106 8.18592 51.9547 8.83229C51.9995 9.48764 52 10.3215 52 11.5C52 12.6785 51.9995 13.5124 51.9547 14.1677C51.9106 14.8141 51.8269 15.2135 51.6955 15.5307C51.2895 16.5108 50.5108 17.2895 49.5307 17.6955C49.2135 17.8269 48.8141 17.9106 48.1677 17.9547C47.5124 17.9995 46.6785 18 45.5 18C44.3215 18 43.4876 17.9995 42.8323 17.9547C42.1859 17.9106 41.7865 17.8269 41.4693 17.6955C40.4892 17.2895 39.7105 16.5108 39.3045 15.5307C39.1731 15.2135 39.0894 14.8141 39.0453 14.1677Z" fill="#87E2AE"/>
        </g>
        <g>
            <path class="reg-tempY_border"  d="M30.5 19.5L24.5 19.5C24.5 21.1569 25.8431 22.5 27.5 22.5C29.1569 22.5 30.5 21.1569 30.5 19.5Z" fill="#242424" stroke="#87E2AE"/>
            <rect class="reg-tempY_border"  x="-0.5" y="-0.5" width="16" height="10" rx="2" transform="matrix(4.37114e-08 -1 -1 -4.37114e-08 32 19)" fill="#242424" stroke="#87E2AE"/>
            <path class="reg-tempY_border"  d="M24.5 3.5L30.5 3.5C30.5 1.84315 29.1569 0.499999 27.5 0.5C25.8431 0.5 24.5 1.84315 24.5 3.5Z" fill="#242424" stroke="#87E2AE"/>
        </g>
        <path class="reg_tempY_zasl" d="M27.5001 5.99902C27.7763 5.99902 28.0001 6.22288 28.0001 6.49902L28.0001 10.0842C28.5827 10.2902 29 10.8458 29 11.4988C29 12.1519 28.5827 12.7075 28.0001 12.9134L28.0001 16.499C28.0001 16.7752 27.7763 16.999 27.5001 16.999C27.224 16.999 27.0001 16.7752 27.0001 16.499L27.0001 12.9135C26.4175 12.7076 26 12.152 26 11.4988C26 10.8457 26.4175 10.29 27.0001 10.0841L27.0001 6.49902C27.0001 6.22288 27.224 5.99902 27.5001 5.99902Z" fill="#87E2AE"/>
    </g>
</svg>
