<svg width="22" height="20" viewBox="0 0 22 20" fill="none" xmlns="http://www.w3.org/2000/svg">
    <path fill-rule="evenodd" clip-rule="evenodd" d="M7.79412 5.95588C7.79412 4.32339 9.11751 3 10.75 3C11.7917 3 12.7076 3.53889 13.234 4.35311C13.2393 4.353 13.2447 4.35295 13.25 4.35295H14.75C15.1642 4.35295 15.5 4.68873 15.5 5.10295C15.5 5.51716 15.1642 5.85295 14.75 5.85295H13.7041C13.7053 5.88711 13.7059 5.92143 13.7059 5.95588V6.85294H14.75C15.1642 6.85294 15.5 7.18873 15.5 7.60294C15.5 8.01715 15.1642 8.35294 14.75 8.35294H13.7059V9.19627C14.5021 9.96711 15 11.0516 15 12.25C15 14.5972 13.0972 16.5 10.75 16.5C8.40279 16.5 6.5 14.5972 6.5 12.25C6.5 11.0516 6.99791 9.96711 7.79412 9.19627V5.95588ZM9.29412 5.95588C9.29412 5.15182 9.94594 4.5 10.75 4.5C11.5541 4.5 12.2059 5.15182 12.2059 5.95588V9.36243C12.2059 9.70716 12.3932 10.0181 12.6432 10.2554C13.1709 10.7565 13.5 11.4648 13.5 12.25C13.5 13.7688 12.2688 15 10.75 15C9.23122 15 8 13.7688 8 12.25C8 11.4648 8.32907 10.7565 8.85681 10.2554C9.1068 10.0181 9.29412 9.70716 9.29412 9.36243V5.95588ZM10.7618 6.69379C10.4856 6.69379 10.2618 6.91764 10.2618 7.19379V9.45728C10.2618 9.98825 9.99129 10.476 9.7209 10.9635C9.55484 11.263 9.38882 11.5623 9.2855 11.8716C9.23371 12.0267 9.20566 12.1925 9.20566 12.365C9.20566 13.2244 9.90236 13.9211 10.7618 13.9211C11.6212 13.9211 12.3179 13.2244 12.3179 12.365C12.3179 12.1925 12.2898 12.0267 12.238 11.8716C12.1347 11.5623 11.9687 11.263 11.8026 10.9635L11.8026 10.9635C11.5323 10.476 11.2618 9.98825 11.2618 9.45729V7.19379C11.2618 6.91764 11.0379 6.69379 10.7618 6.69379Z" fill="url(#normal_gradient)"/>
    <rect x="0.5" y="0.5" width="21" height="19" stroke="#87E2AE"/>
    <defs>
        <linearGradient id="normal_gradient" x1="11" y1="3" x2="11" y2="16.5" gradientUnits="userSpaceOnUse">
            <stop stop-color="#E5F280"/>
            <stop offset="1" stop-color="#87E2AE"/>
        </linearGradient>
    </defs>
</svg>
