<svg width="31" height="23" viewBox="0 0 31 23" fill="none" xmlns="http://www.w3.org/2000/svg">

<g class="reg_tempY_img">
    <path fill-rule="evenodd" clip-rule="evenodd" d="M17 11.5C17 12.6785 17.0005 13.5124 17.0453 14.1677C17.0894 14.8141 17.1731 15.2135 17.3045 15.5307C17.7105 16.5108 18.4892 17.2895 19.4693 17.6955C19.7865 17.8269 20.1859 17.9106 20.8323 17.9547C21.4876 17.9995 22.3215 18 23.5 18C24.6785 18 25.5124 17.9995 26.1677 17.9547C26.8141 17.9106 27.2135 17.8269 27.5307 17.6955C28.5108 17.2895 29.2895 16.5108 29.6955 15.5307C29.8269 15.2135 29.9106 14.8141 29.9547 14.1677C29.9995 13.5124 30 12.6785 30 11.5C30 10.3215 29.9995 9.48764 29.9547 8.83229C29.9106 8.18592 29.8269 7.78654 29.6955 7.46927C29.2895 6.48915 28.5108 5.71046 27.5307 5.30448C27.2135 5.17306 26.8141 5.08936 26.1677 5.04526C25.5124 5.00054 24.6785 5 23.5 5C22.3215 5 21.4876 5.00054 20.8323 5.04526C20.1859 5.08936 19.7865 5.17306 19.4693 5.30448C18.4892 5.71046 17.7105 6.48915 17.3045 7.46927C17.1731 7.78654 17.0894 8.18592 17.0453 8.83229C17.0005 9.48764 17 10.3215 17 11.5ZM23.5 19C25.8297 19 26.9946 19 27.9134 18.6194C29.1386 18.1119 30.1119 17.1386 30.6194 15.9134C31 14.9946 31 13.8297 31 11.5C31 9.17029 31 8.00544 30.6194 7.08658C30.1119 5.86144 29.1386 4.88807 27.9134 4.3806C26.9946 4 25.8297 4 23.5 4C21.1703 4 20.0054 4 19.0866 4.3806C17.8614 4.88807 16.8881 5.86144 16.3806 7.08658C16 8.00544 16 9.17029 16 11.5C16 13.8297 16 14.9946 16.3806 15.9134C16.8881 17.1386 17.8614 18.1119 19.0866 18.6194C20.0054 19 21.1703 19 23.5 19ZM24.6331 6.66029C24.8207 6.45767 25.1371 6.4455 25.3397 6.63312C25.5423 6.82073 25.5545 7.13708 25.3669 7.3397L23.625 9.22088C23.0926 9.79596 23.0926 10.684 23.625 11.2591L23.7754 11.4215C24.6628 12.3799 24.6628 13.8601 23.7754 14.8185L22.3669 16.3397C22.1793 16.5423 21.8629 16.5545 21.6603 16.3669C21.4577 16.1793 21.4455 15.8629 21.6331 15.6603L23.0416 14.1391C23.5741 13.564 23.5741 12.676 23.0416 12.1009L22.8913 11.9385C22.0038 10.9801 22.0038 9.49994 22.8913 8.54148L24.6331 6.66029Z" fill="#87E2AE"/>
    <rect width="1" height="6" transform="matrix(4.37114e-08 -1 -1 -4.37114e-08 17 12)" fill="#87E2AE"/>
 </g>



    <path class="reg-tempY_border" d="M5.5 22.5C7.15685 22.5 8.5 21.1569 8.5 19.5L2.5 19.5C2.5 21.1569 3.84315 22.5 5.5 22.5Z" fill="#242424" stroke="#87E2AE"/>
    <path class="reg-tempY_border" d="M5.5 0.5C3.84315 0.5 2.5 1.84315 2.5 3.5L8.5 3.5C8.5 1.84315 7.15685 0.499999 5.5 0.5Z" fill="#242424" stroke="#87E2AE"/>
    <rect class="reg-tempY_border" x="-0.5" y="-0.5" width="16" height="10" rx="2" transform="matrix(4.37114e-08 -1 -1 -4.37114e-08 10 19)" fill="#242424" stroke="#87E2AE"/>



    <path class="reg_tempY_zasl" fill-rule="evenodd" clip-rule="evenodd" d="M5.49988 17C5.22374 17 4.99988 16.7761 4.99988 16.5V12.9148C4.41735 12.7089 4 12.1533 4 11.5002C4 10.8471 4.41735 10.2915 4.99988 10.0856L4.99988 6.5C4.99988 6.22386 5.22374 6 5.49988 6C5.77603 6 5.99988 6.22386 5.99988 6.5L5.99988 10.0855C6.58254 10.2914 7 10.847 7 11.5002C7 12.1534 6.58254 12.709 5.99988 12.9149V16.5C5.99988 16.7761 5.77603 17 5.49988 17Z" fill="#87E2AE"/>
</svg>
