<svg width="63" height="79" viewBox="0 0 63 79" fill="none" xmlns="http://www.w3.org/2000/svg">
    <g class="vip-zaslonka-icon">
        <g class="zaslonka_img">
            <path d="M36.3669 5.6603C36.5545 5.86292 36.5423 6.17927 36.3397 6.36688L34.4585 8.10872C33.5001 8.99618 32.0199 8.99619 31.0615 8.10872L30.8991 7.95838C30.324 7.4259 29.436 7.4259 28.8609 7.95838L27.3397 9.36688C27.1371 9.5545 26.8207 9.54233 26.6331 9.33971C26.4455 9.13708 26.4577 8.82074 26.6603 8.63312L28.1815 7.22462C29.1399 6.33715 30.6201 6.33715 31.5785 7.22462L31.7409 7.37496C32.316 7.90744 33.204 7.90744 33.7791 7.37496L35.6603 5.63312C35.8629 5.44551 36.1793 5.45768 36.3669 5.6603Z" fill="#87E2AE"/>
            <path fill-rule="evenodd" clip-rule="evenodd" d="M24.3806 3.08658C24 4.00544 24 5.17029 24 7.5C24 9.82971 24 10.9946 24.3806 11.9134C24.8881 13.1386 25.8614 14.1119 27.0866 14.6194C28.0054 15 29.1703 15 31.5 15H31V24H32V15H31.5C33.8297 15 34.9946 15 35.9134 14.6194C37.1386 14.1119 38.1119 13.1386 38.6194 11.9134C39 10.9946 39 9.82971 39 7.5C39 5.17029 39 4.00544 38.6194 3.08658C38.1119 1.86144 37.1386 0.888072 35.9134 0.380602C34.9946 0 33.8297 0 31.5 0C29.1703 0 28.0054 0 27.0866 0.380602C25.8614 0.888072 24.8881 1.86144 24.3806 3.08658ZM28.8323 13.9547C29.4876 13.9995 30.3215 14 31.5 14C32.6785 14 33.5124 13.9995 34.1677 13.9547C34.8141 13.9106 35.2135 13.8269 35.5307 13.6955C36.5108 13.2895 37.2895 12.5108 37.6955 11.5307C37.8269 11.2135 37.9106 10.8141 37.9547 10.1677C37.9995 9.51236 38 8.67854 38 7.5C38 6.32146 37.9995 5.48764 37.9547 4.83229C37.9106 4.18592 37.8269 3.78654 37.6955 3.46927C37.2895 2.48915 36.5108 1.71046 35.5307 1.30448C35.2135 1.17306 34.8141 1.08936 34.1677 1.04526C33.5124 1.00054 32.6785 1 31.5 1C30.3215 1 29.4876 1.00054 28.8323 1.04526C28.1859 1.08936 27.7865 1.17306 27.4693 1.30448C26.4892 1.71046 25.7105 2.48915 25.3045 3.46927C25.1731 3.78654 25.0894 4.18592 25.0453 4.83229C25.0005 5.48764 25 6.32146 25 7.5C25 8.67854 25.0005 9.51236 25.0453 10.1677C25.0894 10.8141 25.1731 11.2135 25.3045 11.5307C25.7105 12.5108 26.4892 13.2895 27.4693 13.6955C27.7865 13.8269 28.1859 13.9106 28.8323 13.9547Z" fill="#87E2AE"/>
        </g>
        <rect class="zaslonka_border" x="17.5" y="23.5" width="28" height="33" rx="2" fill="#242424" stroke="#87E2AE"/>
        <path class="zaslonka" d="M20 40C20 40.2761 20.2239 40.5 20.5 40.5H29.563C29.785 41.3626 30.5681 42 31.5 42C32.4319 42 33.215 41.3626 33.437 40.5L42.5 40.5C42.7761 40.5 43 40.2761 43 40C43 39.7239 42.7761 39.5 42.5 39.5L33.437 39.5C33.215 38.6374 32.4319 38 31.5 38C30.5681 38 29.785 38.6374 29.563 39.5L20.5 39.5C20.2239 39.5 20 39.7239 20 40Z" fill="#87E2AE"/>
    </g>
</svg>
