<svg width="29" height="57" viewBox="0 0 29 57" fill="none" xmlns="http://www.w3.org/2000/svg">
    <g class="zaslonka_img">
        <path fill-rule="evenodd" clip-rule="evenodd" d="M14.5 14C13.3215 14 12.4876 13.9995 11.8323 13.9547C11.1859 13.9106 10.7865 13.8269 10.4693 13.6955C9.48915 13.2895 8.71046 12.5108 8.30448 11.5307C8.17306 11.2135 8.08936 10.8141 8.04526 10.1677C8.00054 9.51236 8 8.67854 8 7.5C8 6.32146 8.00054 5.48764 8.04526 4.83229C8.08936 4.18592 8.17306 3.78654 8.30448 3.46927C8.71046 2.48915 9.48915 1.71046 10.4693 1.30448C10.7865 1.17306 11.1859 1.08936 11.8323 1.04526C12.4876 1.00054 13.3215 1 14.5 1C15.6785 1 16.5124 1.00054 17.1677 1.04526C17.8141 1.08936 18.2135 1.17306 18.5307 1.30448C19.5108 1.71046 20.2895 2.48915 20.6955 3.46927C20.8269 3.78654 20.9106 4.18592 20.9547 4.83229C20.9995 5.48764 21 6.32146 21 7.5C21 8.67854 20.9995 9.51236 20.9547 10.1677C20.9106 10.8141 20.8269 11.2135 20.6955 11.5307C20.2895 12.5108 19.5108 13.2895 18.5307 13.6955C18.2135 13.8269 17.8141 13.9106 17.1677 13.9547C16.5124 13.9995 15.6785 14 14.5 14ZM7 7.5C7 5.17029 7 4.00544 7.3806 3.08658C7.88807 1.86144 8.86144 0.888072 10.0866 0.380602C11.0054 0 12.1703 0 14.5 0C16.8297 0 17.9946 0 18.9134 0.380602C20.1386 0.888072 21.1119 1.86144 21.6194 3.08658C22 4.00544 22 5.17029 22 7.5C22 9.82971 22 10.9946 21.6194 11.9134C21.1119 13.1386 20.1386 14.1119 18.9134 14.6194C17.9946 15 16.8297 15 14.5 15C12.1703 15 11.0054 15 10.0866 14.6194C8.86144 14.1119 7.88807 13.1386 7.3806 11.9134C7 10.9946 7 9.82971 7 7.5ZM19.3397 6.36688C19.5423 6.17927 19.5545 5.86292 19.3669 5.6603C19.1793 5.45768 18.8629 5.44551 18.6603 5.63312L16.7791 7.37496C16.204 7.90744 15.316 7.90744 14.7409 7.37496L14.5785 7.22462C13.6201 6.33715 12.1399 6.33715 11.1815 7.22462L9.6603 8.63312C9.45768 8.82074 9.44551 9.13708 9.63312 9.33971C9.82074 9.54233 10.1371 9.5545 10.3397 9.36688L11.8609 7.95838C12.436 7.4259 13.324 7.4259 13.8991 7.95838L14.0615 8.10872C15.0199 8.99619 16.5001 8.99618 17.4585 8.10872L19.3397 6.36688Z" fill="#87E2AE"/>
        <rect x="14" y="15" width="1" height="9" fill="#87E2AE"/>
    </g>
    <rect class="zaslonka_border" x="0.5" y="23.5" width="28" height="33" rx="2" fill="#242424" stroke="#87E2AE"/>
    <path class="zaslonka" fill-rule="evenodd" clip-rule="evenodd" d="M3 40C3 40.2761 3.22386 40.5 3.5 40.5L12.563 40.5C12.785 41.3626 13.5681 42 14.5 42C15.4319 42 16.215 41.3626 16.437 40.5L25.5 40.5C25.7761 40.5 26 40.2761 26 40C26 39.7239 25.7761 39.5 25.5 39.5L16.437 39.5C16.215 38.6374 15.4319 38 14.5 38C13.5681 38 12.785 38.6374 12.563 39.5L3.5 39.5C3.22386 39.5 3 39.7239 3 40Z" fill="#87E2AE"/>
</svg>
