<svg width="32" height="32" viewBox="0 0 32 32" fill="none" xmlns="http://www.w3.org/2000/svg">
    <path fill-rule="evenodd" clip-rule="evenodd" d="M11.4541 3.42306C12.0182 2.85898 12.9327 2.85898 13.4968 3.42306L16 5.92625L18.5032 3.42306C19.0673 2.85898 19.9818 2.85898 20.5459 3.42306C21.11 3.98713 21.11 4.90168 20.5459 5.46575L17.4444 8.56724V13.2505L21.5003 10.9089L22.6355 6.67218C22.842 5.90163 23.634 5.44436 24.4045 5.65083C25.1751 5.85729 25.6323 6.64931 25.4259 7.41985L24.5097 10.8393L27.9291 11.7555C28.6996 11.962 29.1569 12.754 28.9504 13.5245C28.744 14.2951 27.9519 14.7524 27.1814 14.5459L22.9447 13.4107L18.8888 15.7523L22.9446 18.094L27.1813 16.9587C27.9519 16.7523 28.7439 17.2096 28.9504 17.9801C29.1568 18.7506 28.6996 19.5427 27.929 19.7491L24.5096 20.6654L25.4258 24.0848C25.6323 24.8553 25.175 25.6473 24.4045 25.8538C23.6339 26.0603 22.8419 25.603 22.6354 24.8325L21.5002 20.5957L17.4444 18.2541V22.9374L20.5459 26.0389C21.11 26.6029 21.11 27.5175 20.5459 28.0816C19.9818 28.6456 19.0673 28.6456 18.5032 28.0816L16 25.5784L13.4968 28.0816C12.9327 28.6456 12.0182 28.6456 11.4541 28.0816C10.89 27.5175 10.89 26.6029 11.4541 26.0389L14.5556 22.9374V18.2541L10.4998 20.5957L9.36456 24.8324C9.15809 25.603 8.36607 26.0603 7.59553 25.8538C6.82499 25.6473 6.36772 24.8553 6.57418 24.0848L7.49041 20.6653L4.07099 19.7491C3.30045 19.5426 2.84318 18.7506 3.04964 17.9801C3.25611 17.2095 4.04813 16.7523 4.81867 16.9587L9.05538 18.094L13.1112 15.7523L9.05531 13.4107L4.8186 14.5459C4.04806 14.7524 3.25604 14.2951 3.04958 13.5245C2.84311 12.754 3.30038 11.962 4.07092 11.7555L7.49035 10.8393L6.57412 7.41986C6.36765 6.64932 6.82493 5.8573 7.59547 5.65084C8.36601 5.44437 9.15803 5.90164 9.36449 6.67219L10.4997 10.9089L14.5556 13.2506V8.56724L11.4541 5.46575C10.89 4.90168 10.89 3.98713 11.4541 3.42306Z" fill="url(#normal_system_gradient)"/>
    <defs>
    <linearGradient id="normal_system_gradient" x1="16" y1="3" x2="16" y2="28.5046" gradientUnits="userSpaceOnUse">
        <stop stop-color="#E5F280"/>
        <stop offset="1" stop-color="#87E2AE"/>
    </linearGradient>
    </defs>
</svg>
